<?xml version="1.0" encoding="iso-8859-1"?>
<!-- Uploaded to: SVG Repo, www.svgrepo.com, Generator: SVG Repo Mixer Tools -->
<svg fill="#000000" height="800px" width="800px" version="1.1" id="Layer_1" xmlns="http://www.w3.org/2000/svg" xmlns:xlink="http://www.w3.org/1999/xlink" 
	 viewBox="0 0 511.999 511.999" xml:space="preserve">
<g>
	<g>
		<path d="M500.994,330.084l-54.396-38.226c-12.263-8.619-26.668-13.174-41.657-13.174h-89.186
			c-4.288-25.285-24.275-45.281-49.554-49.584v-84.168c0-5.633-4.567-10.2-10.2-10.2c-5.632,0-10.2,4.566-10.2,10.2V229.1
			c-25.279,4.303-45.266,24.3-49.554,49.584h-89.172c-14.986,0-29.388,4.554-41.651,13.17l-54.416,38.227
			c-11.704,8.237-14.523,24.461-6.287,36.166c4.855,6.9,12.795,11.02,21.24,11.02c5.368,0,10.529-1.636,14.925-4.732l49.942-35.147
			c5.671-3.99,9.447-9.95,10.635-16.78c1.188-6.831-0.356-13.715-4.346-19.385c-0.246-0.349-0.499-0.69-0.759-1.024
			c3.496-0.732,7.082-1.114,10.716-1.114h297.865c3.639,0,7.229,0.382,10.729,1.117c-0.26,0.334-0.514,0.674-0.76,1.023
			c-3.991,5.67-5.536,12.554-4.35,19.384c1.186,6.832,4.962,12.792,10.632,16.783l49.92,35.142
			c4.399,3.097,9.561,4.734,14.928,4.734c8.44,0,16.381-4.118,21.238-11.017C515.515,354.547,512.696,338.323,500.994,330.084z
			 M81.366,317.112c-0.255,1.463-1.063,2.739-2.277,3.592l-49.944,35.148c-1.189,0.837-2.388,1.014-3.183,1.014
			c-1.841,0-3.503-0.86-4.558-2.36c-1.764-2.507-1.16-5.98,1.345-7.744l49.883-35.106l0.069-0.048
			c0.944-0.662,2.045-1.008,3.175-1.008c0.319,0,0.643,0.028,0.964,0.084c1.464,0.255,2.74,1.063,3.593,2.277
			C81.289,314.176,81.62,315.649,81.366,317.112z M217.087,278.647c4.527-17.257,20.257-30.024,38.914-30.024
			s34.387,12.767,38.913,30.024H217.087z M490.598,354.506c-1.057,1.5-2.718,2.361-4.559,2.361c-0.796,0-1.994-0.176-3.185-1.015
			l-49.92-35.142c-1.213-0.854-2.022-2.13-2.276-3.592c-0.254-1.463,0.077-2.936,0.931-4.151c1.081-1.535,2.804-2.356,4.552-2.356
			c1.105,0,2.219,0.327,3.188,1.01l0.018,0.012l49.904,35.13C491.757,348.527,492.361,352.001,490.598,354.506z"/>
	</g>
</g>
</svg>